<svg xmlns="http://www.w3.org/2000/svg" viewBox="0 0 48 48"><defs><linearGradient id="a" x1="3.2" x2="45" y1="15" y2="15" gradientUnits="userSpaceOnUse"><stop offset="0" stop-color="#34a853"/><stop offset="1" stop-color="#3FCD64" style="stop-color:#40d066"/></linearGradient><linearGradient id="b" x1="20" x2="40" y1="48" y2="12" gradientUnits="userSpaceOnUse"><stop offset="0" stop-color="#d93025"/><stop offset="1" stop-color="#ea4335"/></linearGradient><linearGradient id="c" x1="18" x2="8" y1="40" y2="24" gradientUnits="userSpaceOnUse"><stop offset="0" stop-color="#fbbc04"/><stop offset="1" stop-color="#ff8000"/></linearGradient></defs><circle cx="24" cy="23.995" r="12" style="fill:#fff;stroke-width:1"/><circle cx="24" cy="24" r="9.5" style="fill:#1a73e8;stroke-width:1"/><path d="M24 12h20.781C35.548-3.997 12.46-4.001 3.223 11.994l-.006.009L13.608 30l.009-.002C8.989 22.016 14.736 12.018 23.963 12H24Z" style="fill:url(#a);stroke-width:1"/><path d="M34.391 30.003 24.001 48c18.47.002 30.017-19.991 20.784-35.988l-.005-.009H23.999l-.002.009c9.226-.017 15.011 9.959 10.414 17.958l-.02.033Z" style="fill:url(#b);stroke-width:1"/><path d="M16.688 12.729c.187-1.589 1.256-3.649 3.267-4.594-3.022-.458-5.476.945-6.698 2.748-1.94-.415-3.132-.438-5.082-.076-1.238-.93-2.694-3.049-2.58-5.267-2.342 2.735-2.824 4.797-2.535 7.258C-5.954 28.781 6.173 48 24 48l10.387-18.004c-4.598 7.999-16.131 8.021-20.759.04 5.46 3.305 8.536 3.108 10.841 1.578 2.156-1.431 2.359-1.515 3.744-1.622 1.645-.126-.099-3.347-3.693-2.802-1.479.224-3.916 1.948-6.914.812-3.617-1.371-3.503-6.265.232-4.793.808-1.04.212-3.005.212-3.005 1.085-.985 2.455-1.679 3.289-2.167.547-.32 1.99-1.205 1.908-2.928-.294-.227-.769-.518-1.838-.458-4.168.262-4.447-1.23-4.721-1.922Z" style="fill:url(#c);stroke-width:1"/></svg>